<?xml version="1.0" ?><!DOCTYPE svg  PUBLIC '-//W3C//DTD SVG 1.1//EN'  'http://www.w3.org/Graphics/SVG/1.1/DTD/svg11.dtd'><svg enable-background="new 0 0 32 32" height="32px" id="Слой_1" version="1.1" viewBox="0 0 32 32" width="32px" xml:space="preserve" xmlns="http://www.w3.org/2000/svg" xmlns:xlink="http://www.w3.org/1999/xlink"><g id="Arrow_Left_Circle"><path d="M16,0C7.164,0,0,7.164,0,16c0,8.837,7.164,16,16,16c8.837,0,16-7.163,16-16C32,7.164,24.837,0,16,0z M16,30   C8.268,30,2,23.732,2,16C2,8.268,8.268,2,16,2s14,6.268,14,14C30,23.732,23.732,30,16,30z" fill="#121313"/><path d="M25,14.981H9.407l5.2-5.275c0.39-0.394,0.39-1.034,0-1.428c-0.391-0.394-1.024-0.394-1.414,0l-6.899,6.999   C6.107,15.464,6,15.727,6,15.991c0,0.263,0.108,0.526,0.293,0.714l6.899,6.999c0.391,0.395,1.024,0.394,1.414,0   c0.391-0.395,0.391-1.034,0-1.429l-5.2-5.275H25c0.552,0,1-0.452,1-1.01C26,15.433,25.552,14.981,25,14.981z" fill="#121313"/></g><g/><g/><g/><g/><g/><g/></svg>