<?xml version="1.0" encoding="UTF-8"?>
<svg width="19px" height="18px" viewBox="0 0 19 18" version="1.1" xmlns="http://www.w3.org/2000/svg">
  <!-- Generator: Sketch 50.2 (55047) - http://www.bohemiancoding.com/sketch -->
  <title>up-arrow</title>
  <desc>Created with Sketch.</desc>
  <defs></defs>
  <g id="NIX-UI---Screens" stroke="none" stroke-width="1" fill="none" fill-rule="evenodd">
    <g id="Screen-1.1---Overview" transform="translate(-356.000000, -374.000000)" fill="#293246" fill-rule="nonzero">
      <g id="Content" transform="translate(304.000000, 57.000000)">
        <g id="1---Wallet-tile" transform="translate(0.000000, 78.000000)">
          <g id="Action-buttons" transform="translate(42.000000, 230.000000)">
            <g id="Send">
              <path
                d="M28.101983,18 C28.101983,13.0375204 24.0415871,9 19.0509915,9 C14.0603959,9 10,13.0375204 10,18 C10,22.9624796 14.0603959,27 19.0509915,27 C24.0415871,27 28.101983,22.9624796 28.101983,18 Z M10.9043609,18 C10.9043609,13.5330343 14.5587172,9.89926591 19.0509915,9.89926591 C23.5432658,9.89926591 27.1976221,13.5330343 27.1976221,18 C27.1976221,22.4669657 23.5432658,26.1007341 19.0509915,26.1007341 C14.5587172,26.1007341 10.9043609,22.4669657 10.9043609,18 Z M19.3721319,22.228385 L21.9154162,19.699429 C22.0925971,19.5232463 22.0925971,19.2406199 21.9154162,19.0644372 C21.7382353,18.8882545 21.4540076,18.8882545 21.2768267,19.0644372 L19.5050176,20.8262643 L19.5050176,14.0909462 C19.5050176,13.841354 19.3019978,13.639478 19.0509915,13.639478 C18.7999852,13.639478 18.5969654,13.841354 18.5969654,14.0909462 L18.5969654,20.8225938 L16.8251563,19.0607667 C16.6479754,18.884584 16.3637477,18.884584 16.1865668,19.0607667 C16.0093859,19.2369494 16.0093859,19.5195759 16.1865668,19.6957586 L18.7298511,22.2247145 C18.8184416,22.3128059 18.9328709,22.3568515 19.0509915,22.3568515 C19.1691121,22.3568515 19.2835414,22.3164763 19.3721319,22.228385 Z"
                id="up-arrow"
                transform="translate(19.050992, 18.000000) rotate(-180.000000) translate(-19.050992, -18.000000) "></path>
            </g>
          </g>
        </g>
      </g>
    </g>
  </g>
</svg>
