<?xml version="1.0" ?><!DOCTYPE svg  PUBLIC '-//W3C//DTD SVG 1.1//EN'  'http://www.w3.org/Graphics/SVG/1.1/DTD/svg11.dtd'><svg enable-background="new 0 0 32 32" height="32px" id="Слой_1" version="1.1" viewBox="0 0 32 32" width="32px" xml:space="preserve" xmlns="http://www.w3.org/2000/svg" xmlns:xlink="http://www.w3.org/1999/xlink"><g id="Arrow_Down_Circle"><path d="M16,0C7.164,0,0,7.163,0,16c0,8.836,7.164,16,16,16c8.837,0,16-7.164,16-16C32,7.163,24.837,0,16,0z M16,30   C8.268,30,2,23.732,2,16S8.268,2,16,2c7.732,0,14,6.268,14,14S23.732,30,16,30z" fill="#121313"/><path d="M22.285,17.393l-5.275,5.2V7c0-0.552-0.452-1-1.01-1c-0.558,0-1.01,0.448-1.01,1v15.593l-5.275-5.2   c-0.394-0.39-1.034-0.39-1.428,0c-0.394,0.391-0.394,1.024,0,1.414l6.999,6.899C15.473,25.893,15.736,26,16,26   c0.263,0,0.526-0.108,0.714-0.293l6.999-6.899c0.395-0.391,0.394-1.024,0-1.414C23.319,17.003,22.679,17.003,22.285,17.393z" fill="#121313"/></g><g/><g/><g/><g/><g/><g/></svg>