<?xml version="1.0" encoding="UTF-8"?>
<svg width="67px" height="67px" viewBox="0 0 67 67" version="1.1" xmlns="http://www.w3.org/2000/svg">
  <!-- Generator: Sketch 50.2 (55047) - http://www.bohemiancoding.com/sketch -->
  <title>Group 4</title>
  <desc>Created with Sketch.</desc>
  <defs></defs>
  <g id="NIX-UI---Screens" stroke="none" stroke-width="1" fill="none" fill-rule="evenodd">
    <g id="2.2---Ghost-Vault-&gt;-Dashboard" transform="translate(-958.000000, -262.000000)" fill="#FFFFFF"
       fill-rule="nonzero">
      <g id="Group-7" transform="translate(935.000000, 262.000000)">
        <g id="Group-12-Copy">
          <g id="Group-4" transform="translate(23.000000, 0.000000)">
            <path
              d="M34.769074,47.0307376 L43.0225689,38.7772426 C43.5975584,38.2022531 43.5975584,37.2798742 43.0225689,36.7048847 C42.4475794,36.1298952 41.5252005,36.1298952 40.950211,36.7048847 L35.2003161,42.4547796 L35.2003161,20.4734106 C35.2003161,19.6588421 34.541474,19 33.7269055,19 C32.9123371,19 32.253495,19.6588421 32.253495,20.4734106 L32.253495,42.4428006 L26.5036001,36.6929057 C25.9286106,36.1179162 25.0062316,36.1179162 24.4312421,36.6929057 C23.8562526,37.2678952 23.8562526,38.1902742 24.4312421,38.7652637 L32.6847371,47.0187586 C32.9722318,47.3062534 33.3435792,47.4500008 33.7269055,47.4500008 C34.1102319,47.4500008 34.4815792,47.3182323 34.769074,47.0307376 Z"
              id="down-arrow-copy" stroke="#4A4A4A"></path>
            <path
              d="M67,33.5 C67,15.0285481 51.9714519,0 33.5,0 C15.0285481,0 0,15.0285481 0,33.5 C0,51.9714519 15.0285481,67 33.5,67 C51.9714519,67 67,51.9714519 67,33.5 Z M3.34726754,33.5 C3.34726754,16.8729608 16.8729608,3.34726754 33.5,3.34726754 C50.1270392,3.34726754 63.6527325,16.8729608 63.6527325,33.5 C63.6527325,50.1270392 50.1270392,63.6527325 33.5,63.6527325 C16.8729608,63.6527325 3.34726754,50.1270392 3.34726754,33.5 Z"
              id="down-arrow-copy-5"></path>
          </g>
        </g>
      </g>
    </g>
  </g>
</svg>
