<?xml version="1.0" encoding="UTF-8"?>
<svg width="20px" height="20px" viewBox="0 0 20 20" version="1.1" xmlns="http://www.w3.org/2000/svg" xmlns:xlink="http://www.w3.org/1999/xlink">
    <!-- Generator: Sketch 50.2 (55047) - http://www.bohemiancoding.com/sketch -->
    <title>down-arrow copy 4</title>
    <desc>Created with Sketch.</desc>
    <defs></defs>
    <g id="NIX-UI---Screens" stroke="none" stroke-width="1" fill="none" fill-rule="evenodd">
        <g id="3.1---Transactions-&gt;-Landing" transform="translate(-301.000000, -424.000000)" fill="#4A4A4A" fill-rule="nonzero">
            <g id="Group-7" transform="translate(300.000000, 148.000000)">
                <path d="M21,286 C21,280.486134 16.5138662,276 11,276 C5.48613377,276 1,280.486134 1,286 C1,291.513866 5.48613377,296 11,296 C16.5138662,296 21,291.513866 21,286 Z M1.99918434,286 C1.99918434,281.036705 6.03670473,276.999184 11,276.999184 C15.9632953,276.999184 20.0008157,281.036705 20.0008157,286 C20.0008157,290.963295 15.9632953,295.000816 11,295.000816 C6.03670473,295.000816 1.99918434,290.963295 1.99918434,286 Z M11.3548124,290.698206 L14.1647635,287.888254 C14.360522,287.692496 14.360522,287.378467 14.1647635,287.182708 C13.9690049,286.986949 13.6549755,286.986949 13.459217,287.182708 L11.5016313,289.140294 L11.5016313,281.656607 C11.5016313,281.379282 11.2773246,281.154976 11,281.154976 C10.7226754,281.154976 10.4983687,281.379282 10.4983687,281.656607 L10.4983687,289.136215 L8.54078303,287.17863 C8.34502447,286.982871 8.03099511,286.982871 7.83523654,287.17863 C7.63947798,287.374388 7.63947798,287.688418 7.83523654,287.884176 L10.6451876,290.694127 C10.7430669,290.792007 10.8694943,290.840946 11,290.840946 C11.1305057,290.840946 11.2569331,290.796085 11.3548124,290.698206 Z" id="down-arrow-copy-4" transform="translate(11.000000, 286.000000) rotate(-180.000000) translate(-11.000000, -286.000000) "></path>
            </g>
        </g>
    </g>
</svg>