<?xml version="1.0" encoding="UTF-8"?>
<svg width="32px" height="32px" viewBox="0 0 32 32" version="1.1" xmlns="http://www.w3.org/2000/svg" xmlns:xlink="http://www.w3.org/1999/xlink">
    <!-- Generator: Sketch 50.2 (55047) - http://www.bohemiancoding.com/sketch -->
    <title>down-arrow</title>
    <desc>Created with Sketch.</desc>
    <defs></defs>
    <g id="NIX-UI---Screens" stroke="none" stroke-width="1" fill="none" fill-rule="evenodd">
        <g id="2.2---Ghost-Vault-&gt;-Dashboard-Copy" transform="translate(-514.000000, -609.000000)" fill="#FFFFFF" fill-rule="nonzero">
            <path d="M546,625 C546,616.177814 538.822186,609 530,609 C521.177814,609 514,616.177814 514,625 C514,633.822186 521.177814,641 530,641 C538.822186,641 546,633.822186 546,625 Z M515.598695,625 C515.598695,617.058728 522.058728,610.598695 530,610.598695 C537.941272,610.598695 544.401305,617.058728 544.401305,625 C544.401305,632.941272 537.941272,639.401305 530,639.401305 C522.058728,639.401305 515.598695,632.941272 515.598695,625 Z M530.5677,632.517129 L535.063622,628.021207 C535.376835,627.707993 535.376835,627.205546 535.063622,626.892333 C534.750408,626.579119 534.247961,626.579119 533.934747,626.892333 L530.80261,630.02447 L530.80261,618.050571 C530.80261,617.606852 530.443719,617.247961 530,617.247961 C529.556281,617.247961 529.19739,617.606852 529.19739,618.050571 L529.19739,630.017945 L526.065253,626.885808 C525.752039,626.572594 525.249592,626.572594 524.936378,626.885808 C524.623165,627.199021 524.623165,627.701468 524.936378,628.014682 L529.4323,632.510604 C529.588907,632.66721 529.791191,632.745514 530,632.745514 C530.208809,632.745514 530.411093,632.673736 530.5677,632.517129 Z" id="down-arrow"></path>
        </g>
    </g>
</svg>