<svg width="67px" height="67px" viewBox="0 0 67 67" version="1.1" xmlns="http://www.w3.org/2000/svg">
  <!-- Generator: Sketch 50.2 (55047) - http://www.bohemiancoding.com/sketch -->
  <desc>Created with Sketch.</desc>
  <defs></defs>
  <g id="New-screens-2018-06-05" stroke="none" stroke-width="1" fill="none" fill-rule="evenodd">
    <g id="1-of-3-Create-Password" transform="translate(-49.000000, -45.000000)" fill="#9B9B9B" fill-rule="nonzero">
      <path
        d="M83.8171681,92.5326427 L92.070663,84.2791478 C92.6456525,83.7041583 92.6456525,82.7817793 92.070663,82.2067898 C91.4956735,81.6318003 90.5732946,81.6318003 89.9983051,82.2067898 L84.2484102,87.9566847 L84.2484102,65.9753157 C84.2484102,65.1607473 83.5895681,64.5019051 82.7749996,64.5019051 C81.9604312,64.5019051 81.3015891,65.1607473 81.3015891,65.9753157 L81.3015891,87.9447058 L75.5516942,82.1948109 C74.9767047,81.6198214 74.0543257,81.6198214 73.4793362,82.1948109 C72.9043467,82.7698004 72.9043467,83.6921793 73.4793362,84.2671688 L81.7328312,92.5206638 C82.0203259,92.8081585 82.3916733,92.9519059 82.7749996,92.9519059 C83.1583259,92.9519059 83.5296733,92.8201375 83.8171681,92.5326427 Z"
        id="down-arrow-copy"
        transform="translate(82.775000, 78.726906) rotate(-270.000000) translate(-82.775000, -78.726906) "></path>
      <path
        d="M116,78.5 C116,60.0285481 100.971452,45 82.5,45 C64.0285481,45 49,60.0285481 49,78.5 C49,96.9714519 64.0285481,112 82.5,112 C100.971452,112 116,96.9714519 116,78.5 Z M52.3472675,78.5 C52.3472675,61.8729608 65.8729608,48.3472675 82.5,48.3472675 C99.1270392,48.3472675 112.652732,61.8729608 112.652732,78.5 C112.652732,95.1270392 99.1270392,108.652732 82.5,108.652732 C65.8729608,108.652732 52.3472675,95.1270392 52.3472675,78.5 Z"
        id="down-arrow-copy-5"
        transform="translate(82.500000, 78.500000) rotate(-270.000000) translate(-82.500000, -78.500000) "></path>
    </g>
  </g>
</svg>
