<?xml version="1.0" encoding="UTF-8"?>
<svg width="20px" height="20px" viewBox="0 0 20 20" version="1.1" xmlns="http://www.w3.org/2000/svg" xmlns:xlink="http://www.w3.org/1999/xlink">
    <!-- Generator: Sketch 50.2 (55047) - http://www.bohemiancoding.com/sketch -->
    <title>down-arrow copy 4</title>
    <desc>Created with Sketch.</desc>
    <defs></defs>
    <g id="NIX-UI---Screens" stroke="none" stroke-width="1" fill="none" fill-rule="evenodd">
        <g id="3.1---Transactions-&gt;-Landing" transform="translate(-301.000000, -746.000000)" fill="#4A4A4A" fill-rule="nonzero">
            <g id="Group-7" transform="translate(300.000000, 148.000000)">
                <path d="M21,608 C21,602.486134 16.5138662,598 11,598 C5.48613377,598 1,602.486134 1,608 C1,613.513866 5.48613377,618 11,618 C16.5138662,618 21,613.513866 21,608 Z M1.99918434,608 C1.99918434,603.036705 6.03670473,598.999184 11,598.999184 C15.9632953,598.999184 20.0008157,603.036705 20.0008157,608 C20.0008157,612.963295 15.9632953,617.000816 11,617.000816 C6.03670473,617.000816 1.99918434,612.963295 1.99918434,608 Z M11.3548124,612.698206 L14.1647635,609.888254 C14.360522,609.692496 14.360522,609.378467 14.1647635,609.182708 C13.9690049,608.986949 13.6549755,608.986949 13.459217,609.182708 L11.5016313,611.140294 L11.5016313,603.656607 C11.5016313,603.379282 11.2773246,603.154976 11,603.154976 C10.7226754,603.154976 10.4983687,603.379282 10.4983687,603.656607 L10.4983687,611.136215 L8.54078303,609.17863 C8.34502447,608.982871 8.03099511,608.982871 7.83523654,609.17863 C7.63947798,609.374388 7.63947798,609.688418 7.83523654,609.884176 L10.6451876,612.694127 C10.7430669,612.792007 10.8694943,612.840946 11,612.840946 C11.1305057,612.840946 11.2569331,612.796085 11.3548124,612.698206 Z" id="down-arrow-copy-4" transform="translate(11.000000, 608.000000) rotate(-90.000000) translate(-11.000000, -608.000000) "></path>
            </g>
        </g>
    </g>
</svg>