<?xml version="1.0" encoding="UTF-8"?>
<svg width="20px" height="20px" viewBox="0 0 20 20" version="1.1" xmlns="http://www.w3.org/2000/svg" xmlns:xlink="http://www.w3.org/1999/xlink">
    <!-- Generator: Sketch 50.2 (55047) - http://www.bohemiancoding.com/sketch -->
    <title>down-arrow copy 3</title>
    <desc>Created with Sketch.</desc>
    <defs></defs>
    <g id="NIX-UI---Screens" stroke="none" stroke-width="1" fill="none" fill-rule="evenodd">
        <g id="3.1---Transactions-&gt;-Landing" transform="translate(-301.000000, -489.000000)" fill="#4A4A4A" fill-rule="nonzero">
            <g id="Group-7" transform="translate(300.000000, 148.000000)">
                <path d="M21,351 C21,345.486134 16.5138662,341 11,341 C5.48613377,341 1,345.486134 1,351 C1,356.513866 5.48613377,361 11,361 C16.5138662,361 21,356.513866 21,351 Z M1.99918434,351 C1.99918434,346.036705 6.03670473,341.999184 11,341.999184 C15.9632953,341.999184 20.0008157,346.036705 20.0008157,351 C20.0008157,355.963295 15.9632953,360.000816 11,360.000816 C6.03670473,360.000816 1.99918434,355.963295 1.99918434,351 Z M11.3548124,355.698206 L14.1647635,352.888254 C14.360522,352.692496 14.360522,352.378467 14.1647635,352.182708 C13.9690049,351.986949 13.6549755,351.986949 13.459217,352.182708 L11.5016313,354.140294 L11.5016313,346.656607 C11.5016313,346.379282 11.2773246,346.154976 11,346.154976 C10.7226754,346.154976 10.4983687,346.379282 10.4983687,346.656607 L10.4983687,354.136215 L8.54078303,352.17863 C8.34502447,351.982871 8.03099511,351.982871 7.83523654,352.17863 C7.63947798,352.374388 7.63947798,352.688418 7.83523654,352.884176 L10.6451876,355.694127 C10.7430669,355.792007 10.8694943,355.840946 11,355.840946 C11.1305057,355.840946 11.2569331,355.796085 11.3548124,355.698206 Z" id="down-arrow-copy-3"></path>
            </g>
        </g>
    </g>
</svg>