<?xml version="1.0" encoding="UTF-8"?>
<svg width="32px" height="32px" viewBox="0 0 32 32" version="1.1" xmlns="http://www.w3.org/2000/svg" xmlns:xlink="http://www.w3.org/1999/xlink">
    <!-- Generator: Sketch 50.2 (55047) - http://www.bohemiancoding.com/sketch -->
    <title>Reward</title>
    <desc>Created with Sketch.</desc>
    <defs></defs>
    <g id="NIX-UI---Screens" stroke="none" stroke-width="1" fill="none" fill-rule="evenodd">
        <g id="2.2---Ghost-Vault-&gt;-Dashboard-Copy" transform="translate(-514.000000, -789.000000)" fill="#FFFFFF" fill-rule="nonzero">
            <g id="Reward" transform="translate(514.000000, 789.000000)">
                <path d="M32,16 C32,7.17781403 24.822186,0 16,0 C7.17781403,0 0,7.17781403 0,16 C0,24.822186 7.17781403,32 16,32 C24.822186,32 32,24.822186 32,16 Z M1.59869494,16 C1.59869494,8.05872757 8.05872757,1.59869494 16,1.59869494 C23.9412724,1.59869494 30.4013051,8.05872757 30.4013051,16 C30.4013051,23.9412724 23.9412724,30.4013051 16,30.4013051 C8.05872757,30.4013051 1.59869494,23.9412724 1.59869494,16 Z" id="down-arrow-copy-2"></path>
                <path d="M14.5493503,17.1851509 L16.9181558,17.1851509 C17.8286413,17.1851509 18.5693753,18.0145353 18.5693753,19.0377012 C18.5693753,20.060867 17.8286413,20.8902514 16.9181558,20.8902514 L12.6589355,20.8902514 C12.1342489,20.8902514 11.7098701,21.3165705 11.7098701,21.843656 C11.7098701,22.3707414 12.1342489,22.7970605 12.6589355,22.7970605 L14.7885456,22.7970605 L14.7885456,24.5565957 C14.7885456,25.0836811 15.2129245,25.5100002 15.737611,25.5100002 C16.2622976,25.5100002 16.6866764,25.0836811 16.6866764,24.5565957 L16.6866764,22.7970605 L16.9490197,22.7970605 L16.9721676,22.7970605 C18.9011623,22.7660555 20.4675061,21.0995354 20.4675061,19.0454524 C20.4675061,16.975867 18.8780144,15.2938443 16.9258718,15.2938443 L14.5570663,15.2938443 C13.6465807,15.2938443 12.8981308,14.4644599 12.8981308,13.441294 C12.8981308,12.4181282 13.6388648,11.5887438 14.5570663,11.5887438 L18.7391268,11.5887438 C19.2638133,11.5887438 19.6881922,11.1624247 19.6881922,10.6353392 C19.6881922,10.1082538 19.2638133,9.68193471 18.7391268,9.68193471 L16.6866764,9.68193471 L16.6866764,7.95340453 C16.6866764,7.4263191 16.2622976,7 15.737611,7 C15.2129245,7 14.7885456,7.4263191 14.7885456,7.95340453 L14.7885456,9.68193471 L14.5493503,9.68193471 C12.5972076,9.68193471 11,11.3639573 11,13.4335428 C11,15.5031282 12.5972076,17.1851509 14.5493503,17.1851509 Z" id="communication-3"></path>
            </g>
        </g>
    </g>
</svg>