<svg width="66px" height="66px" viewBox="0 0 66 66" version="1.1" xmlns="http://www.w3.org/2000/svg">
  <!-- Generator: Sketch 50.2 (55047) - http://www.bohemiancoding.com/sketch -->
  <desc>Created with Sketch.</desc>
  <defs></defs>
  <g id="New-screens-2018-06-05" stroke="none" stroke-width="1" fill="none" fill-rule="evenodd">
    <g id="2-of-3-Copy-Phrase" transform="translate(-420.000000, -728.000000)">
      <g id="Group-6" transform="translate(408.000000, 728.000000)">
        <g id="Group-11">
          <circle id="Oval-2" fill="#000000" cx="45" cy="33" r="33"></circle>
          <g id="Group-9" transform="translate(30.000000, 18.000000)" fill="#FFFFFF" fill-rule="nonzero">
            <path
              d="M27.224079,5.69318182 L8.61044266,5.69318182 C7.07635175,5.69318182 5.81498812,6.95454545 5.81498812,8.48863636 L5.81498812,27.1022727 C5.81498812,28.6363636 7.07635175,29.8977273 8.61044266,29.8977273 L27.224079,29.8977273 C28.7581699,29.8977273 30.0195336,28.6363636 30.0195336,27.1022727 L30.0195336,8.48863636 C29.9854427,6.95454545 28.7581699,5.69318182 27.224079,5.69318182 Z M28.1445336,27.1022727 C28.1445336,27.6136364 27.7354427,28.0227273 27.224079,28.0227273 L8.61044266,28.0227273 C8.09907903,28.0227273 7.68998812,27.6136364 7.68998812,27.1022727 L7.68998812,8.48863636 C7.68998812,7.97727273 8.09907903,7.56818182 8.61044266,7.56818182 L27.224079,7.56818182 C27.7354427,7.56818182 28.1445336,7.97727273 28.1445336,8.48863636 L28.1445336,27.1022727 Z"
              id="Shape"></path>
            <path
              d="M2.09907903,21.5113636 L2.09907903,2.89772727 C2.09907903,2.38636364 2.50816993,1.97727273 3.01953357,1.97727273 L21.6331699,1.97727273 C22.1445336,1.97727273 22.5536245,2.38636364 22.5536245,2.89772727 L22.5536245,3.81818182 L24.4286245,3.81818182 L24.4286245,2.89772727 C24.4286245,1.36363636 23.1672608,0.102272727 21.6331699,0.102272727 L3.01953357,0.102272727 C1.48544266,0.102272727 0.224079026,1.36363636 0.224079026,2.89772727 L0.224079026,21.5113636 C0.224079026,23.0454545 1.48544266,24.3068182 3.01953357,24.3068182 L3.93998812,24.3068182 L3.93998812,22.4318182 L3.01953357,22.4318182 C2.50816993,22.4318182 2.09907903,22.0227273 2.09907903,21.5113636 Z"
              id="Shape"></path>
            <polygon id="Shape"
                     points="18.8377154 13.125 16.9968063 13.125 16.9968063 16.875 13.2468063 16.875 13.2468063 18.7159091 16.9968063 18.7159091 16.9968063 22.4318182 18.8377154 22.4318182 18.8377154 18.7159091 22.5536245 18.7159091 22.5536245 16.875 18.8377154 16.875"></polygon>
          </g>
        </g>
      </g>
    </g>
  </g>
</svg>
