<svg width="66px" height="66px" viewBox="0 0 66 66" version="1.1" xmlns="http://www.w3.org/2000/svg">
  <!-- Generator: Sketch 50.2 (55047) - http://www.bohemiancoding.com/sketch -->
  <desc>Created with Sketch.</desc>
  <defs></defs>
  <g id="New-screens-2018-06-05" stroke="none" stroke-width="1" fill="none" fill-rule="evenodd">
    <g id="2-of-3-Copy-Phrase-(copied)" transform="translate(-420.000000, -728.000000)">
      <g id="Group-6" transform="translate(408.000000, 728.000000)">
        <g id="Group-11">
          <circle id="Oval-2" fill="#6C00F2" cx="45" cy="33" r="33"></circle>
          <g id="Group-9" transform="translate(30.000000, 18.000000)" fill="#FFFFFF" fill-rule="nonzero">
            <path
              d="M27.228169,6 L8.77183099,6 C7.25070423,6 6,7.25070423 6,8.77183099 L6,27.228169 C6,28.7492958 7.25070423,30 8.77183099,30 L27.228169,30 C28.7492958,30 30,28.7492958 30,27.228169 L30,8.77183099 C29.9661972,7.25070423 28.7492958,6 27.228169,6 Z M28.1408451,27.228169 C28.1408451,27.7352113 27.7352113,28.1408451 27.228169,28.1408451 L8.77183099,28.1408451 C8.26478873,28.1408451 7.85915493,27.7352113 7.85915493,27.228169 L7.85915493,8.77183099 C7.85915493,8.26478873 8.26478873,7.85915493 8.77183099,7.85915493 L27.228169,7.85915493 C27.7352113,7.85915493 28.1408451,8.26478873 28.1408451,8.77183099 L28.1408451,27.228169 Z"
              id="Shape"></path>
            <path
              d="M1.85915493,21.228169 L1.85915493,2.77183099 C1.85915493,2.26478873 2.26478873,1.85915493 2.77183099,1.85915493 L21.228169,1.85915493 C21.7352113,1.85915493 22.1408451,2.26478873 22.1408451,2.77183099 L22.1408451,3.68450704 L24,3.68450704 L24,2.77183099 C24,1.25070423 22.7492958,0 21.228169,0 L2.77183099,0 C1.25070423,0 0,1.25070423 0,2.77183099 L0,21.228169 C0,22.7492958 1.25070423,24 2.77183099,24 L3.68450704,24 L3.68450704,22.1408451 L2.77183099,22.1408451 C2.26478873,22.1408451 1.85915493,21.7352113 1.85915493,21.228169 Z"
              id="Shape"></path>
            <polygon id="Shape"
                     points="18.4065934 13 16.6263736 13 16.6263736 16.6263736 13 16.6263736 13 18.4065934 16.6263736 18.4065934 16.6263736 22 18.4065934 22 18.4065934 18.4065934 22 18.4065934 22 16.6263736 18.4065934 16.6263736"></polygon>
          </g>
        </g>
      </g>
    </g>
  </g>
</svg>
