<?xml version="1.0" encoding="iso-8859-1"?>
<!-- Generator: Adobe Illustrator 16.0.0, SVG Export Plug-In . SVG Version: 6.00 Build 0)  -->
<!DOCTYPE svg PUBLIC "-//W3C//DTD SVG 1.1//EN" "http://www.w3.org/Graphics/SVG/1.1/DTD/svg11.dtd">
<svg xmlns="http://www.w3.org/2000/svg" xmlns:xlink="http://www.w3.org/1999/xlink" version="1.1" id="Capa_1" x="0px" y="0px" width="512px" height="512px" viewBox="0 0 44.238 44.238" style="enable-background:new 0 0 44.238 44.238;" xml:space="preserve">
<g>
	<g>
		<path d="M22.119,44.237C9.923,44.237,0,34.315,0,22.119S9.923,0.001,22.119,0.001c12.195,0,22.119,9.922,22.119,22.118    S34.314,44.237,22.119,44.237z M22.119,1.501C10.75,1.501,1.5,10.75,1.5,22.119c0,11.368,9.25,20.618,20.619,20.618    s20.619-9.25,20.619-20.618C42.738,10.75,33.488,1.501,22.119,1.501z" fill="#933EC5"/>
		<g>
			<path d="M22.119,25.329c-0.414,0-0.75-0.336-0.75-0.75V12.952c0-0.414,0.336-0.75,0.75-0.75s0.75,0.336,0.75,0.75v11.627     C22.869,24.993,22.533,25.329,22.119,25.329z" fill="#933EC5"/>
		</g>
		<g>
			<path d="M31.434,30.165H12.805c-0.414,0-0.75-0.336-0.75-0.75s0.336-0.75,0.75-0.75h18.628c0.414,0,0.75,0.336,0.75,0.75     S31.848,30.165,31.434,30.165z" fill="#933EC5"/>
		</g>
		<g>
			<path d="M22.119,25.329c-0.191,0-0.384-0.073-0.529-0.219l-3.334-3.326c-0.294-0.293-0.294-0.768-0.002-1.061     c0.292-0.294,0.769-0.294,1.061-0.002l3.334,3.326c0.294,0.293,0.294,0.769,0.002,1.062     C22.504,25.256,22.312,25.329,22.119,25.329z" fill="#933EC5"/>
		</g>
		<g>
			<path d="M22.119,25.329c-0.192,0-0.385-0.073-0.531-0.221c-0.292-0.293-0.292-0.769,0.002-1.062l3.334-3.326     c0.292-0.292,0.77-0.292,1.061,0.002c0.293,0.293,0.293,0.768-0.002,1.061l-3.333,3.326     C22.503,25.256,22.311,25.329,22.119,25.329z" fill="#933EC5"/>
		</g>
	</g>
</g>
<g>
</g>
<g>
</g>
<g>
</g>
<g>
</g>
<g>
</g>
<g>
</g>
<g>
</g>
<g>
</g>
<g>
</g>
<g>
</g>
<g>
</g>
<g>
</g>
<g>
</g>
<g>
</g>
<g>
</g>
</svg>
