<?xml version="1.0" encoding="UTF-8"?>
<svg width="14px" height="14px" viewBox="0 0 14 14" version="1.1" xmlns="http://www.w3.org/2000/svg">
  <!-- Generator: Sketch 50.2 (55047) - http://www.bohemiancoding.com/sketch -->
  <title>noun_1721076_cc</title>
  <desc>Created with Sketch.</desc>
  <defs></defs>
  <g id="NIX-UI---Screens" stroke="none" stroke-width="1" fill="none" fill-rule="evenodd">
    <g id="3.2---Transactions-&gt;-Filters" transform="translate(-1058.000000, -57.000000)" fill="#FFFFFF"
       fill-rule="nonzero">
      <g id="noun_1721076_cc" transform="translate(1058.000000, 57.000000)">
        <path
          d="M12.4633204,1.60773297 C12.4633204,1.62494393 12.4617558,1.64371953 12.4601912,1.66093049 C12.4664497,1.6186854 12.4711436,1.57800495 12.4774021,1.53575987 C12.4711436,1.57956958 12.4601912,1.62025004 12.4445448,1.66093049 C12.4601912,1.6233793 12.4758375,1.58582811 12.4914838,1.54827693 C12.4774021,1.58113422 12.4085583,1.67814145 12.4836607,1.58269885 C12.5446813,1.50446721 12.5305997,1.5232428 12.5180826,1.53888913 C12.5149533,1.54358303 12.5118241,1.54827693 12.5071302,1.55140619 C12.4899192,1.57331105 12.4742729,1.59365128 12.4570619,1.61555614 C12.3897827,1.70004631 12.3240681,1.78453647 12.2567889,1.86902664 C12.0158355,2.17569466 11.774882,2.48079805 11.5339286,2.78746607 C11.2037911,3.20522301 10.8736536,3.62454459 10.5450807,4.04230153 C10.1914737,4.4897865 9.83943132,4.93727147 9.48582432,5.38632107 C9.17602703,5.78060852 8.86466512,6.17489597 8.55486783,6.56918342 C8.35146557,6.8257832 8.14962795,7.0839476 7.94622569,7.34054737 C7.90554524,7.39218025 7.86486479,7.4422485 7.82574897,7.49388138 C7.82261971,7.49701065 7.82105507,7.50013991 7.81792581,7.50326918 C7.7365649,7.60809957 7.68493202,7.7051068 7.68023813,7.84122985 C7.67867349,7.87095787 7.68023813,7.9006859 7.68023813,7.93041392 C7.68023813,8.32470137 7.68023813,8.72055346 7.68023813,9.11484091 C7.68023813,9.6734148 7.68023813,10.2335533 7.68023813,10.7921272 C7.68023813,11.1488635 7.68023813,11.5055998 7.68023813,11.8607714 C7.68023813,11.8998872 7.68023813,11.9374384 7.67397959,11.9765542 C7.68023813,11.9343091 7.68493202,11.8936287 7.69119055,11.8513836 C7.68493202,11.8889348 7.67397959,11.9249213 7.6598979,11.9609079 C7.67554423,11.9233567 7.69119055,11.8858055 7.70683688,11.8482543 C7.69744909,11.8685945 7.68493202,11.8873701 7.67554423,11.9077104 C7.64268694,11.9765542 7.70996615,11.8607714 7.70996615,11.8670299 C7.70840151,11.8826762 7.67085033,11.9030165 7.66302716,11.9155335 C7.70840151,11.8466897 7.7459527,11.8607714 7.70527225,11.8826762 C7.67710886,11.8983226 7.64894547,11.9108396 7.62078208,11.926486 C7.59574796,11.939003 7.57227847,11.9546494 7.54724434,11.968731 C7.41894446,12.0422688 7.29064457,12.1173712 7.16234468,12.1909089 C6.81656085,12.3911819 6.47077701,12.5898902 6.1265578,12.7901632 C6.04206764,12.8386669 5.96070673,12.8918644 5.8730873,12.9341095 C5.91063848,12.9184631 5.94818967,12.9028168 5.98574086,12.8871705 C5.94193114,12.9059461 5.89968606,12.9168985 5.85274707,12.9247217 C5.89499216,12.9184631 5.93567261,12.9137692 5.97791769,12.9075107 C5.93723724,12.91064 5.89812142,12.91064 5.85587634,12.9059461 C5.89812142,12.9122046 5.93880187,12.9168985 5.98104696,12.923157 C5.93880187,12.9168985 5.90125069,12.9059461 5.86213487,12.8887351 C5.89968606,12.9043814 5.93723724,12.9200278 5.97478843,12.9356741 C5.9497543,12.9247217 5.92784944,12.91064 5.90281532,12.8965583 C5.83397148,12.8574424 5.99669329,12.9810484 5.92784944,12.9122046 C5.8590056,12.8433608 5.98417622,13.0060826 5.94349577,12.9372387 C5.92941408,12.9137692 5.91533238,12.8902997 5.90437995,12.8652656 C5.92002628,12.9028168 5.93567261,12.940368 5.95131894,12.9779192 C5.93567261,12.9388034 5.92472018,12.8996875 5.91689702,12.8590071 C5.92315555,12.9012522 5.92784944,12.9419326 5.93410798,12.9841777 C5.92472018,12.8996875 5.92941408,12.8120681 5.92941408,12.7275779 C5.92941408,12.5460805 5.92941408,12.3645831 5.92941408,12.1830857 C5.92941408,11.6166887 5.92941408,11.0518563 5.92941408,10.4854592 C5.92941408,9.90185118 5.92941408,9.31824317 5.92941408,8.73463515 C5.92941408,8.43735493 5.94036651,8.13694544 5.92941408,7.83966522 C5.92472018,7.70354217 5.87465193,7.60653494 5.7917264,7.50013991 C5.79016176,7.49701065 5.7870325,7.49388138 5.78546786,7.49231675 C5.76982154,7.47197652 5.75417521,7.45320093 5.73852888,7.4328607 C5.66655578,7.342112 5.59458267,7.24979867 5.52260956,7.15904997 C5.25349273,6.81796003 4.98594053,6.47687009 4.7168237,6.13578015 C4.35069963,5.67264886 3.9861402,5.20795293 3.62001614,4.74482164 C3.24137501,4.26447938 2.86273389,3.78413713 2.48409276,3.30379487 C2.17586011,2.91420132 1.86919209,2.52304313 1.56095944,2.13344958 C1.40762543,1.93943512 1.25585605,1.74542066 1.10252204,1.55297083 C1.09939278,1.54827693 1.09469888,1.54358303 1.09156961,1.53888913 C1.09156961,1.5373245 1.09000498,1.5373245 1.09000498,1.53575987 C1.09313425,1.53888913 1.18231831,1.67501218 1.14789639,1.60616834 C1.1385086,1.58582811 1.12599153,1.56705252 1.11660374,1.5467123 C1.13225006,1.58426348 1.14789639,1.62181467 1.16354272,1.65936585 C1.14789639,1.6186854 1.13694396,1.57800495 1.13068543,1.53419523 C1.13694396,1.57644032 1.14163786,1.61712077 1.14789639,1.65936585 C1.14476713,1.62025004 1.14476713,1.58113422 1.14946103,1.5420184 C1.14320249,1.58426348 1.1385086,1.62494393 1.13225006,1.66718902 C1.1385086,1.62494393 1.14946103,1.58739275 1.16667199,1.54827693 C1.15102566,1.58582811 1.13537933,1.6233793 1.119733,1.66093049 C1.13068543,1.63589636 1.14476713,1.6139915 1.15884882,1.58895738 C1.19952927,1.52011354 1.07435865,1.68283535 1.14320249,1.6139915 C1.21204634,1.54514766 1.04932453,1.67031828 1.11816837,1.62963783 C1.14163786,1.61555614 1.16510735,1.60147444 1.19014148,1.59052201 C1.15259029,1.60616834 1.1150391,1.62181467 1.07748792,1.637461 C1.11660374,1.62181467 1.15571956,1.61086224 1.19640001,1.60303908 C1.15415492,1.60929761 1.11347447,1.6139915 1.07122939,1.62025004 C1.18701221,1.60616834 1.30905357,1.61555614 1.42640102,1.61555614 C1.69864712,1.61555614 1.97245785,1.61555614 2.24470395,1.61555614 C2.6530731,1.61555614 3.06144225,1.61555614 3.46824676,1.61555614 C3.96579998,1.61555614 4.46178856,1.61555614 4.95934177,1.61555614 C5.50696323,1.61555614 6.0545847,1.61555614 6.60220616,1.61555614 C7.15452152,1.61555614 7.70683688,1.61555614 8.26071688,1.61555614 C8.77391642,1.61555614 9.28555133,1.61555614 9.79875087,1.61555614 C10.2337188,1.61555614 10.667122,1.61555614 11.10209,1.61555614 C11.4118872,1.61555614 11.7201199,1.61555614 12.0299172,1.61555614 C12.1738634,1.61555614 12.3178096,1.6139915 12.4617558,1.61555614 C12.4883546,1.61555614 12.5149533,1.61712077 12.5415521,1.62025004 C12.499307,1.6139915 12.4586265,1.60929761 12.4163815,1.60303908 C12.4586265,1.60929761 12.4961777,1.62025004 12.5352935,1.637461 C12.4977424,1.62181467 12.4601912,1.60616834 12.42264,1.59052201 C12.4476741,1.60147444 12.469579,1.61555614 12.4946131,1.62963783 C12.5634569,1.67031828 12.4007351,1.54514766 12.469579,1.6139915 C12.5384228,1.68283535 12.4132522,1.52011354 12.4539326,1.58895738 C12.4680143,1.61242687 12.4805314,1.63589636 12.4930485,1.66093049 C12.4774021,1.6233793 12.4617558,1.58582811 12.4461095,1.54827693 C12.4617558,1.58739275 12.4727082,1.62650857 12.4805314,1.66718902 C12.4742729,1.62494393 12.469579,1.58426348 12.4633204,1.5420184 C12.4617558,1.56548789 12.4633204,1.58739275 12.4633204,1.60773297 C12.469579,1.85338032 12.6745459,2.08807523 12.9327103,2.0771228 C13.1814869,2.06617037 13.4083586,1.87059128 13.4021001,1.60773297 C13.389583,1.09453343 12.9859078,0.689293549 12.4727082,0.679905752 C12.4476741,0.679905752 12.4210754,0.679905752 12.3960412,0.679905752 C12.2364487,0.679905752 12.0768562,0.679905752 11.915699,0.679905752 C11.2538593,0.679905752 10.5920197,0.679905752 9.93018002,0.679905752 C9.01017596,0.679905752 8.09017191,0.679905752 7.17016785,0.679905752 C6.2220004,0.679905752 5.27226832,0.679905752 4.32410088,0.679905752 C3.57620642,0.679905752 2.8298766,0.679905752 2.08198214,0.679905752 C1.76592633,0.679905752 1.44987051,0.673647221 1.13537933,0.679905752 C0.630002952,0.689293549 0.229456968,1.083581 0.205987477,1.58739275 C0.195035047,1.83460472 0.298300809,2.04270088 0.44694092,2.23045681 C0.558029846,2.37127376 0.670683404,2.51365534 0.781772329,2.65447228 C1.27150238,3.27719612 1.76279706,3.89835532 2.25252711,4.52107915 C2.83613513,5.26115045 3.41817851,5.9996571 4.00178653,6.73972839 C4.36008743,7.19347189 4.71838833,7.64878002 5.0751246,8.10252352 C5.09233556,8.12442838 5.10954652,8.14633324 5.12675748,8.1682381 C5.08138313,8.05714917 5.03444414,7.94762488 4.98906979,7.83653595 C4.98906979,8.06653697 4.98906979,8.29810261 4.98906979,8.52810363 C4.98906979,9.0522556 4.98906979,9.57484294 4.98906979,10.0989949 C4.98906979,10.6606981 4.98906979,11.2224012 4.98906979,11.7841044 C4.98906979,12.1377114 4.98906979,12.4897538 4.98906979,12.8433608 C4.98906979,13.1156069 5.05947827,13.3722066 5.25505736,13.5740442 C5.49131691,13.8212562 5.88560436,13.9213927 6.20948334,13.8056099 C6.29397351,13.7758819 6.36281735,13.7398953 6.43791972,13.6960856 C6.87288763,13.4441797 7.3062909,13.1938385 7.7412588,12.9419326 C7.86017089,12.8730888 7.97751835,12.799551 8.09799507,12.7354011 C8.43595574,12.557033 8.62058241,12.2362832 8.62058241,11.8560775 C8.62058241,11.4836949 8.62058241,11.1128769 8.62058241,10.7404943 C8.62058241,10.170968 8.62058241,9.60144169 8.62058241,9.03191537 C8.62058241,8.65170962 8.62058241,8.27150386 8.62058241,7.8912981 C8.62058241,7.87252251 8.62058241,7.85218228 8.62058241,7.83340669 C8.57520806,7.94449561 8.52826908,8.0540199 8.48289473,8.16510883 C8.64561653,7.95701267 8.80990297,7.75048115 8.97262478,7.542385 C9.35908907,7.05265494 9.74555336,6.56136026 10.1320176,6.07163021 C10.5967136,5.48176366 11.0614095,4.89346175 11.5261054,4.3035952 C11.9141343,3.81073589 12.3037279,3.31787657 12.6917568,2.82501725 C12.8560433,2.6169211 13.0218943,2.40882494 13.1846161,2.19916415 C13.3223038,2.02392528 13.3974062,1.83147546 13.4036647,1.60616834 C13.4114879,1.360521 13.1830515,1.12582609 12.9342749,1.13677852 C12.6729812,1.15086021 12.4711436,1.34487467 12.4633204,1.60773297 Z"
          id="Shape"></path>
      </g>
    </g>
  </g>
</svg>
