<?xml version="1.0" encoding="UTF-8"?>
<svg width="495px" height="495px" viewBox="0 0 495 495" version="1.1" xmlns="http://www.w3.org/2000/svg">
  <!-- Generator: Sketch 50.2 (55047) - http://www.bohemiancoding.com/sketch -->
  <title>Group 2</title>
  <desc>Created with Sketch.</desc>
  <defs></defs>
  <g id="NIX-UI---Screens" stroke="none" stroke-width="1" fill="none" fill-rule="evenodd">
    <g id="2.1---Ghost-Vault-&gt;-Landing" transform="translate(-580.000000, -61.000000)">
      <g id="Group-2" transform="translate(580.000000, 61.000000)">
        <circle id="Oval-Copy" fill-opacity="0.3" fill="#D8D8D8" cx="247.5" cy="247.5" r="247.5"></circle>
        <circle id="Oval" fill-opacity="0.5" fill="#D8D8D8" cx="247" cy="247" r="202"></circle>
        <g id="Ghost"
           transform="translate(253.128825, 233.684468) rotate(7.000000) translate(-253.128825, -233.684468) translate(162.128825, 112.184468)"
           fill="#000000" fill-rule="nonzero">
          <path
            d="M158.946667,243 C146.206667,243 135.893333,232.6725 135.893333,219.915 L135.893333,191.97 C135.893333,185.895 131.04,181.035 124.973333,181.035 C118.906667,181.035 114.053333,185.895 114.053333,191.97 L114.053333,219.915 C114.053333,232.6725 103.74,243 91,243 C78.26,243 67.9466667,232.6725 67.9466667,219.915 L67.9466667,191.97 C67.9466667,185.895 63.0933333,181.035 57.0266667,181.035 C50.96,181.035 46.1066667,185.895 46.1066667,191.97 L46.1066667,219.915 C46.1066667,232.6725 35.7933333,243 23.0533333,243 C10.3133333,243 0,232.6725 0,219.915 L0,91.125 C0,82.62 1.21333333,74.115 3.64,65.61 C4.85333333,62.5725 7.88666667,60.75 10.92,61.3575 C13.9533333,62.5725 15.7733333,65.61 15.1666667,68.6475 C13.3466667,75.9375 12.1333333,83.2275 12.1333333,90.5175 L12.1333333,219.915 C12.1333333,225.99 16.9866667,230.85 23.0533333,230.85 C29.12,230.85 33.9733333,225.99 33.9733333,219.915 L33.9733333,191.97 C33.9733333,179.2125 44.2866667,168.885 57.0266667,168.885 C69.7666667,168.885 80.08,179.2125 80.08,191.97 L80.08,219.915 C80.08,225.99 84.9333333,230.85 91,230.85 C97.0666667,230.85 101.92,225.99 101.92,219.915 L101.92,191.97 C101.92,179.2125 112.233333,168.885 124.973333,168.885 C137.713333,168.885 148.026667,179.2125 148.026667,191.97 L148.026667,219.915 C148.026667,225.99 152.88,230.85 158.946667,230.85 C165.013333,230.85 169.866667,225.99 169.866667,219.915 L169.866667,91.125 C169.866667,47.9925 134.68,12.15 91,12.15 C69.16,12.15 49.14,20.655 33.9733333,36.45 C31.5466667,38.88 27.9066667,38.88 25.48,36.45 C23.0533333,34.02 23.0533333,30.375 25.48,27.945 C42.4666667,9.72 66.1266667,0 91,0 C140.746667,0 182,40.7025 182,91.125 L182,220.5225 C182,232.6725 171.686667,243 158.946667,243 Z"
            id="Shape"></path>
          <path
            d="M71.9360991,85.3032328 C70.7256106,85.3032328 69.6845905,85.7390086 68.8130388,86.6105603 C67.9414871,87.4821121 67.5057112,88.547342 67.5057112,89.80625 C67.5541307,100.31329 70.7982399,108.254095 77.2380388,113.628664 L77.3106681,113.701293 C83.1694325,118.833764 91.5460129,121.4 102.440409,121.4 C112.850611,121.4 121.009303,118.761135 126.916487,113.483405 C133.404705,107.963578 136.673024,100.071193 136.721444,89.80625 C136.721444,88.547342 136.285668,87.4821121 135.414116,86.6105603 C134.590984,85.7390086 133.574174,85.3032328 132.363685,85.3032328 L71.9360991,85.3032328 Z M82.9757543,107.019397 C79.4895474,103.823707 77.3590876,99.5143678 76.584375,94.0913793 L127.64278,94.0913793 C126.916487,99.4175287 124.761818,103.702658 121.178772,106.946767 L121.178772,106.874138 C116.578915,110.699282 110.332795,112.611853 102.440409,112.611853 C94.063829,112.611853 87.5756106,110.747701 82.9757543,107.019397 Z M84.8641164,61.9892241 C84.7188578,60.7787356 84.2104526,59.7861351 83.3389009,59.0114224 C82.3705101,58.2851293 81.2810704,57.9946121 80.0705819,58.1398707 L68.8856681,59.374569 C67.6751796,59.471408 66.682579,59.9798132 65.9078664,60.8997845 C65.1815733,61.8197557 64.891056,62.8849856 65.0363147,64.0954741 C65.1331537,65.3059626 65.6657687,66.2985632 66.6341595,67.0732759 C67.5057112,67.799569 68.5467313,68.114296 69.7572198,68.0174569 L80.9421336,66.8553879 C82.1526221,66.6617098 83.1452227,66.1290948 83.9199353,65.2575431 C84.694648,64.2891523 85.009375,63.1997126 84.8641164,61.9892241 Z M136.430927,69.3974138 C138.22245,67.7027299 139.118211,65.5964799 139.118211,63.0786638 C139.118211,60.4640086 138.22245,58.2851293 136.430927,56.5420259 C134.736243,54.847342 132.629993,54 130.112177,54 C127.545941,54 125.367062,54.847342 123.575539,56.5420259 C121.880855,58.2851293 121.033513,60.4640086 121.033513,63.0786638 C121.033513,65.5964799 121.880855,67.7027299 123.575539,69.3974138 C125.367062,71.1889368 127.545941,72.0846983 130.112177,72.0846983 C132.629993,72.0846983 134.736243,71.1889368 136.430927,69.3974138 Z"
            id="Shape"
            transform="translate(102.059106, 87.700000) rotate(-8.000000) translate(-102.059106, -87.700000) "></path>
        </g>
      </g>
    </g>
  </g>
</svg>
