<svg xmlns:xlink="http://www.w3.org/1999/xlink" width="66px" height="66px" viewBox="0 0 66 66" version="1.1"
     xmlns="http://www.w3.org/2000/svg">
  <!-- Generator: Sketch 50.2 (55047) - http://www.bohemiancoding.com/sketch -->
  <desc>Created with Sketch.</desc>
  <defs>
    <path
      d="M24.5454545,24.5454545 L24.5454545,28.6363636 C24.5454545,29.3894792 23.9349337,30 23.1818182,30 L6.81818182,30 C6.06506625,30 5.45454545,29.3894792 5.45454545,28.6363636 L5.45454545,24.5454545 L4.09090909,24.5454545 C1.83156239,24.5454545 0,22.7138922 0,20.4545455 L0,13.6363636 C-3.02788098e-16,11.3770169 1.83156239,9.54545455 4.09090909,9.54545455 L5.45454545,9.54545455 L5.45454545,1.36363636 C5.45454545,0.610520796 6.06506625,0 6.81818182,0 L23.1818182,0 C23.9349337,0 24.5454545,0.610520796 24.5454545,1.36363636 L24.5454545,9.54545455 L25.9090909,9.54545455 C28.1684376,9.54545455 30,11.3770169 30,13.6363636 L30,20.4545455 C30,22.7138922 28.1684376,24.5454545 25.9090909,24.5454545 L24.5454545,24.5454545 Z M24.5454545,21.8181818 L25.9090909,21.8181818 C26.6622065,21.8181818 27.2727273,21.207661 27.2727273,20.4545455 L27.2727273,13.6363636 C27.2727273,12.8832481 26.6622065,12.2727273 25.9090909,12.2727273 L4.09090909,12.2727273 C3.33779352,12.2727273 2.72727273,12.8832481 2.72727273,13.6363636 L2.72727273,20.4545455 C2.72727273,21.207661 3.33779352,21.8181818 4.09090909,21.8181818 L5.45454545,21.8181818 L5.45454545,17.7272727 C5.45454545,16.9741572 6.06506625,16.3636364 6.81818182,16.3636364 L23.1818182,16.3636364 C23.9349337,16.3636364 24.5454545,16.9741572 24.5454545,17.7272727 L24.5454545,21.8181818 Z M8.18181818,9.54545455 L21.8181818,9.54545455 L21.8181818,2.72727273 L8.18181818,2.72727273 L8.18181818,9.54545455 Z M8.18181818,27.2727273 L21.8181818,27.2727273 L21.8181818,19.0909091 L8.18181818,19.0909091 L8.18181818,27.2727273 Z"
      id="path-1"></path>
  </defs>
  <g id="New-screens-2018-06-05" stroke="none" stroke-width="1" fill="none" fill-rule="evenodd">
    <g id="2-of-3-Copy-Phrase" transform="translate(-582.000000, -728.000000)">
      <g id="Group-6" transform="translate(408.000000, 728.000000)" fill="#000000">
        <g id="Group-7" transform="translate(174.000000, 0.000000)">
          <circle id="Oval-2-Copy" cx="33" cy="33" r="33"></circle>
        </g>
      </g>
      <g id="printer" transform="translate(600.000000, 747.000000)">
        <mask id="mask-2" fill="white">
          <use xlink:href="#path-1"></use>
        </mask>
        <use id="Combined-Shape" fill="#FFFFFF" fill-rule="nonzero" xlink:href="#path-1"></use>
      </g>
    </g>
  </g>
</svg>
