<?xml version="1.0" encoding="UTF-8"?>
<svg width="20px" height="20px" viewBox="0 0 20 20" version="1.1" xmlns="http://www.w3.org/2000/svg" xmlns:xlink="http://www.w3.org/1999/xlink">
    <!-- Generator: Sketch 50.2 (55047) - http://www.bohemiancoding.com/sketch -->
    <title>Group 8 Copy</title>
    <desc>Created with Sketch.</desc>
    <defs></defs>
    <g id="NIX-UI---Screens" stroke="none" stroke-width="1" fill="none" fill-rule="evenodd">
        <g id="3.1---Transactions-&gt;-Landing" transform="translate(-301.000000, -811.000000)" fill="#4A4A4A" fill-rule="nonzero">
            <g id="Group-7" transform="translate(300.000000, 148.000000)">
                <g id="Group-8-Copy" transform="translate(1.000000, 663.000000)">
                    <path d="M20,10 C20,4.48613377 15.5138662,0 10,0 C4.48613377,0 0,4.48613377 0,10 C0,15.5138662 4.48613377,20 10,20 C15.5138662,20 20,15.5138662 20,10 Z M0.999184339,10 C0.999184339,5.03670473 5.03670473,0.999184339 10,0.999184339 C14.9632953,0.999184339 19.0008157,5.03670473 19.0008157,10 C19.0008157,14.9632953 14.9632953,19.0008157 10,19.0008157 C5.03670473,19.0008157 0.999184339,14.9632953 0.999184339,10 Z" id="down-arrow-copy-2"></path>
                    <path d="M9.09334392,10.7407193 L10.5738474,10.7407193 C11.1429008,10.7407193 11.6058595,11.2590846 11.6058595,11.8985632 C11.6058595,12.5380419 11.1429008,13.0564071 10.5738474,13.0564071 L7.91183466,13.0564071 C7.58390556,13.0564071 7.31866878,13.3228566 7.31866878,13.652285 C7.31866878,13.9817134 7.58390556,14.2481628 7.91183466,14.2481628 L9.24284101,14.2481628 L9.24284101,15.3478723 C9.24284101,15.6773007 9.50807778,15.9437501 9.83600688,15.9437501 C10.163936,15.9437501 10.4291728,15.6773007 10.4291728,15.3478723 L10.4291728,14.2481628 L10.5931373,14.2481628 L10.6076048,14.2481628 C11.8132265,14.2287847 12.7921913,13.1872096 12.7921913,11.9034078 C12.7921913,10.6099168 11.798759,9.5586527 10.5786698,9.5586527 L9.09816641,9.5586527 C8.52911297,9.5586527 8.06133175,9.04028743 8.06133175,8.40080878 C8.06133175,7.76133013 8.52429048,7.24296486 9.09816641,7.24296486 L11.7119542,7.24296486 C12.0398833,7.24296486 12.3051201,6.97651542 12.3051201,6.64708703 C12.3051201,6.31765863 12.0398833,6.05120919 11.7119542,6.05120919 L10.4291728,6.05120919 L10.4291728,4.97087783 C10.4291728,4.64144944 10.163936,4.375 9.83600688,4.375 C9.50807778,4.375 9.24284101,4.64144944 9.24284101,4.97087783 L9.24284101,6.05120919 L9.09334392,6.05120919 C7.87325476,6.05120919 6.875,7.10247334 6.875,8.39596425 C6.875,9.68945515 7.87325476,10.7407193 9.09334392,10.7407193 Z" id="communication-3"></path>
                </g>
            </g>
        </g>
    </g>
</svg>