<?xml version="1.0" encoding="UTF-8"?>
<svg width="67px" height="67px" viewBox="0 0 67 67" version="1.1" xmlns="http://www.w3.org/2000/svg">
  <!-- Generator: Sketch 50.2 (55047) - http://www.bohemiancoding.com/sketch -->
  <title>Group 6</title>
  <desc>Created with Sketch.</desc>
  <defs></defs>
  <g id="NIX-UI---Screens" stroke="none" stroke-width="1" fill="none" fill-rule="evenodd">
    <g id="2.2---Ghost-Vault-&gt;-Dashboard" transform="translate(-1241.000000, -262.000000)" fill="#FFFFFF"
       fill-rule="nonzero">
      <g id="Group-7" transform="translate(935.000000, 262.000000)">
        <g id="Group-6" transform="translate(306.000000, 0.000000)">
          <path
            d="M67,33.5 C67,15.0285481 51.9714519,0 33.5,0 C15.0285481,0 0,15.0285481 0,33.5 C0,51.9714519 15.0285481,67 33.5,67 C51.9714519,67 67,51.9714519 67,33.5 Z M3.34726754,33.5 C3.34726754,16.8729608 16.8729608,3.34726754 33.5,3.34726754 C50.1270392,3.34726754 63.6527325,16.8729608 63.6527325,33.5 C63.6527325,50.1270392 50.1270392,63.6527325 33.5,63.6527325 C16.8729608,63.6527325 3.34726754,50.1270392 3.34726754,33.5 Z"
            id="down-arrow-copy-4"></path>
          <path
            d="M14.0028166,33.8269988 C14.0419777,34.4881948 14.4792773,35.044647 15.1123828,35.2344954 L26.8346233,38.7892426 L27.2653961,46.8938045 C27.2849767,47.2145828 27.5003631,47.4960821 27.8071255,47.6008261 C27.8919747,47.6335585 27.9833507,47.6466515 28.0681999,47.6466515 C28.29664,47.6466515 28.5120264,47.5550006 28.668671,47.3782452 L32.8132271,42.7760586 L38.6874011,46.8545255 C38.9484755,47.0378274 39.2552379,47.1360249 39.5750541,47.1360249 C40.3125893,47.1360249 40.9522215,46.6123052 41.1088662,45.8790977 L45.9844306,20.9565879 C46.0431724,20.6685421 45.9322157,20.3674033 45.7103025,20.1841014 C45.4818624,19.994253 45.1751,19.9484275 44.9009719,20.059718 L14.9426844,32.2885722 C14.3356864,32.5635251 13.9636554,33.1658027 14.0028166,33.8269988 Z M28.7535202,44.8840303 L28.4859189,39.771217 L31.4882745,41.8530027 L28.7535202,44.8840303 Z M39.5489466,45.5059474 L28.8579499,38.0822211 L43.8501474,23.5359073 L39.5489466,45.5059474 Z M42.2053787,22.8943507 L27.3828796,37.2770021 L15.6736927,33.7288013 L42.2053787,22.8943507 Z"
            id="paper-plane" stroke="#FFFFFF"></path>
        </g>
      </g>
    </g>
  </g>
</svg>
