<?xml version="1.0" encoding="UTF-8"?>
<svg width="36px" height="36px" viewBox="0 0 36 36" version="1.1" xmlns="http://www.w3.org/2000/svg" xmlns:xlink="http://www.w3.org/1999/xlink">
    <!-- Generator: Sketch 50.2 (55047) - http://www.bohemiancoding.com/sketch -->
    <title>Group 11</title>
    <desc>Created with Sketch.</desc>
    <defs></defs>
    <g id="NIX-UI---Screens" stroke="none" stroke-width="1" fill="none" fill-rule="evenodd">
        <g id="Staking_ENABLED" transform="translate(-301.000000, -845.000000)">
            <g id="Group-3" transform="translate(301.000000, 845.000000)">
                <g id="Group-11">
                    <g id="Refresh-Copy-2">
                        <g id="Group">
                            <circle id="Oval" fill="#108EFF" cx="18" cy="18" r="18"></circle>
                            <g id="Group-2"></g>
                        </g>
                    </g>
                    <g id="noun_Lightning_1041190" transform="translate(11.000000, 8.000000)" fill="#FFFFFF">
                        <g id="Group">
                            <path d="M12.3072659,0.117094975 C12.2156555,0.119800945 12.125102,0.151467619 12.0515484,0.206510237 L2.42728876,7.41634965 C2.36664244,7.46178267 2.31766665,7.52283754 2.28629786,7.59207855 C2.25492907,7.66131955 2.24123474,7.73858751 2.24692385,7.81446837 C2.25259047,7.89034923 2.27761804,7.96468383 2.31894839,8.02842193 C2.36025625,8.0921373 2.41777694,8.14511974 2.48449464,8.18091131 L6.62119496,10.3988973 L0.383685209,19.4120977 C0.0792393019,19.945333 0.580667716,20.2910377 1.03559387,20.0254206 L13.1783513,10.2168697 C13.2362093,10.1701178 13.2823293,10.1087218 13.3112471,10.0399356 C13.3401873,9.97117213 13.3519028,9.89510935 13.3449769,9.82072928 C13.3380735,9.74637195 13.3125738,9.67381101 13.2714683,9.61161918 C13.2303628,9.54942734 13.1737641,9.4977183 13.1082831,9.46256342 L9.15682753,7.34212876 L12.716117,0.788205157 C12.753917,0.718507094 12.773098,0.638683246 12.7711192,0.559293718 C12.7690954,0.479906463 12.7460017,0.401151359 12.7047613,0.333456625 C12.6635209,0.265759616 12.6042687,0.209288973 12.5348751,0.171516812 C12.4654815,0.133746925 12.3861264,0.11476875 12.3072659,0.117094975 Z" id="Shape"></path>
                        </g>
                    </g>
                </g>
            </g>
        </g>
    </g>
</svg>