<?xml version="1.0" encoding="UTF-8"?>
<svg width="38px" height="38px" viewBox="0 0 38 38" version="1.1" xmlns="http://www.w3.org/2000/svg" xmlns:xlink="http://www.w3.org/1999/xlink">
    <!-- Generator: Sketch 50.2 (55047) - http://www.bohemiancoding.com/sketch -->
    <title>Group 3</title>
    <desc>Created with Sketch.</desc>
    <defs></defs>
    <g id="NIX-UI---Screens" stroke="none" stroke-width="1" fill="none" fill-rule="evenodd">
        <g id="Staking_NotEnabled" transform="translate(-300.000000, -844.000000)">
            <g id="Group-3" transform="translate(301.000000, 845.000000)">
                <g id="Refresh-Copy-2">
                    <g id="Group">
                        <circle id="Oval" stroke="#9B9B9B" cx="18" cy="18" r="18"></circle>
                        <g id="Group-2"></g>
                    </g>
                </g>
                <path d="M23.3072659,8.11709498 C23.2156555,8.11980095 23.125102,8.15146762 23.0515484,8.20651024 L13.4272888,15.4163497 C13.3666424,15.4617827 13.3176667,15.5228375 13.2862979,15.5920785 C13.2549291,15.6613195 13.2412347,15.7385875 13.2469238,15.8144684 C13.2525905,15.8903492 13.277618,15.9646838 13.3189484,16.0284219 C13.3602562,16.0921373 13.4177769,16.1451197 13.4844946,16.1809113 L17.621195,18.3988973 L11.3836852,27.4120977 C11.0792393,27.945333 11.5806677,28.2910377 12.0355939,28.0254206 L24.1783513,18.2168697 C24.2362093,18.1701178 24.2823293,18.1087218 24.3112471,18.0399356 C24.3401873,17.9711721 24.3519028,17.8951094 24.3449769,17.8207293 C24.3380735,17.7463719 24.3125738,17.673811 24.2714683,17.6116192 C24.2303628,17.5494273 24.1737641,17.4977183 24.1082831,17.4625634 L20.1568275,15.3421288 L23.716117,8.78820516 C23.753917,8.71850709 23.773098,8.63868325 23.7711192,8.55929372 C23.7690954,8.47990646 23.7460017,8.40115136 23.7047613,8.33345662 C23.6635209,8.26575962 23.6042687,8.20928897 23.5348751,8.17151681 C23.4654815,8.13374692 23.3861264,8.11476875 23.3072659,8.11709498 Z" id="Shape" fill="#9B9B9B"></path>
            </g>
        </g>
    </g>
</svg>