<?xml version="1.0" encoding="UTF-8"?>
<svg width="127px" height="127px" viewBox="0 0 127 127" version="1.1" xmlns="http://www.w3.org/2000/svg" xmlns:xlink="http://www.w3.org/1999/xlink">
    <!-- Generator: Sketch 50.2 (55047) - http://www.bohemiancoding.com/sketch -->
    <title>2B</title>
    <desc>Created with Sketch.</desc>
    <defs>
        <linearGradient x1="0%" y1="100%" x2="100%" y2="0%" id="linearGradient-1">
            <stop stop-color="#3C17BF" offset="0%"></stop>
            <stop stop-color="#00C1FF" offset="100%"></stop>
        </linearGradient>
    </defs>
    <g id="NIX-UI---Screens" stroke="none" stroke-width="1" fill="none" fill-rule="evenodd">
        <g id="Modal-2.3---Send-NIX-from-Ghost-Vault-&gt;-Confirmation" transform="translate(-657.000000, -248.000000)" fill="url(#linearGradient-1)">
            <g id="Send-popup">
                <g id="Modal" transform="translate(454.000000, 107.000000)">
                    <path d="M286.011818,186.13613 L256.349896,215.428597 L248.268078,206.188935 C246.470286,204.133844 243.343117,203.922727 241.284727,205.723818 C239.226338,207.524909 239.018519,210.648779 240.81961,212.707169 L252.365065,225.901974 C253.262312,226.92787 254.545506,227.53813 255.90787,227.58761 C255.970545,227.590909 256.029922,227.590909 256.089299,227.590909 C257.388987,227.590909 258.639195,227.07961 259.56613,226.16587 L292.965481,193.178857 C294.908416,191.255714 294.928208,188.121948 293.008364,186.179013 C291.088519,184.236078 287.954753,184.216286 286.011818,186.13613 M266.5,258.103896 C236.940338,258.103896 212.896104,234.059662 212.896104,204.5 C212.896104,174.943636 236.940338,150.896104 266.5,150.896104 C296.056364,150.896104 320.103896,174.943636 320.103896,204.5 C320.103896,234.059662 296.056364,258.103896 266.5,258.103896 Z M266.5,141 C231.484286,141 203,169.487584 203,204.5 C203,239.512416 231.484286,268 266.5,268 C301.512416,268 330,239.512416 330,204.5 C330,169.487584 301.512416,141 266.5,141 Z" id="2B"></path>
                </g>
            </g>
        </g>
    </g>
</svg>