<svg width="36px" height="36px" viewBox="0 0 36 36" version="1.1" xmlns="http://www.w3.org/2000/svg">
  <!-- Generator: Sketch 50.2 (55047) - http://www.bohemiancoding.com/sketch -->
  <desc>Created with Sketch.</desc>
  <defs></defs>
  <g id="NIX-UI---Screens" stroke="none" stroke-width="1" fill="none" fill-rule="evenodd">
    <g id="1.1---Overview" transform="translate(-1289.000000, -57.000000)">
      <g id="Content" transform="translate(304.000000, 57.000000)">
        <g id="Top-icons" transform="translate(985.000000, 0.000000)">
          <g id="Refresh-button">
            <g id="Group">
              <circle id="Oval" fill="#EAEAEA" cx="18" cy="18" r="18"></circle>
              <g id="Group-2"></g>
            </g>
            <g id="Refresh-icon" transform="translate(10.000000, 11.000000)" fill="#1A1919">
              <g id="9A">
                <path
                  d="M5.71487179,5.96837838 C5.71487179,5.63310811 5.44,5.3622973 5.09948718,5.3622973 L2.37128205,5.37081081 C3.15897436,2.96675676 5.46051282,1.29364865 8.03282051,1.28554054 C8.03692308,1.28554054 8.04512821,1.28554054 8.05333333,1.28554054 C10.9251282,1.28554054 13.3948718,3.30567568 13.9241026,6.09567568 C13.9774359,6.38797297 14.2358974,6.5922973 14.5271795,6.5922973 C14.5641026,6.5922973 14.6051282,6.58864865 14.6420513,6.58175676 C14.974359,6.51972973 15.1958974,6.2022973 15.134359,5.87189189 C14.494359,2.50621622 11.52,0.0693243243 8.05333333,0.0693243243 C8.04512821,0.0693243243 8.03692308,0.0693243243 8.02871795,0.0693243243 C5.18153846,0.0782432432 2.60512821,1.78337838 1.46871795,4.30905405 L1.46051282,2.02905405 C1.46051282,1.69418919 1.18153846,1.42297297 0.845128205,1.42297297 C0.845128205,1.42297297 0.845128205,1.42297297 0.841025641,1.42297297 C0.504615385,1.42418919 0.22974359,1.69743243 0.22974359,2.03310811 L0.242051282,5.98581081 C0.242051282,6.14716216 0.307692308,6.30162162 0.422564103,6.41513514 C0.537435897,6.52864865 0.693333333,6.59189189 0.857435897,6.59189189 L5.10358974,6.57851351 C5.44410256,6.5772973 5.71897436,6.30405405 5.71487179,5.96837838"
                  id="Fill-96"></path>
                <path
                  d="M15.8482051,8.70243243 C15.8441026,8.36756757 15.5692308,8.09635135 15.2328205,8.09635135 L15.2287179,8.09635135 L10.9866667,8.10972973 C10.6461538,8.11094595 10.3712821,8.38418919 10.3712821,8.71986486 C10.3753846,9.05513514 10.6502564,9.32594595 10.9866667,9.32594595 C10.9907692,9.32594595 10.9907692,9.32594595 10.9907692,9.32594595 L13.76,9.31743243 C13.0051282,11.7818919 10.6994872,13.4898649 8.06974359,13.4983784 C8.06564103,13.4983784 8.06153846,13.4983784 8.05333333,13.4983784 C5.46871795,13.4983784 2.85128205,11.4887838 2.33025641,9.10297297 C2.25641026,8.77418919 1.92820513,8.56662162 1.6,8.63635135 C1.26769231,8.7072973 1.05435897,9.03081081 1.12820513,9.35878378 C1.77230769,12.3158108 4.87794872,14.7145946 8.05333333,14.7145946 C8.06153846,14.7145946 8.06974359,14.7145946 8.07384615,14.7145946 C10.9374359,14.7052703 13.4810256,13.0301351 14.6215385,10.5206757 L14.6297436,12.6591892 C14.6297436,12.9940541 14.9046154,13.2652703 15.2451282,13.2652703 C15.585641,13.2640541 15.8605128,12.9908108 15.8605128,12.6551351 L15.8482051,8.70243243"
                  id="Fill-97"></path>
              </g>
            </g>
          </g>
        </g>
      </g>
    </g>
  </g>
</svg>
