<?xml version="1.0" encoding="UTF-8"?>
<svg width="12px" height="12px" viewBox="0 0 12 12" version="1.1" xmlns="http://www.w3.org/2000/svg">
  <!-- Generator: Sketch 50.2 (55047) - http://www.bohemiancoding.com/sketch -->
  <title>4A</title>
  <desc>Created with Sketch.</desc>
  <defs></defs>
  <g id="NIX-UI---Screens" stroke="none" stroke-width="1" fill="none" fill-rule="evenodd">
    <g id="3.2---Transactions-&gt;-Filters" transform="translate(-1377.000000, -132.000000)" fill="#FFFFFF">
      <g id="4A" transform="translate(1377.000000, 132.000000)">
        <path
          d="M6.42695798,5.57152941 L10.9655798,1.03282542 C11.2019496,0.796854759 11.2019496,0.413251177 10.9655798,0.17728052 C10.7292101,-0.0590935065 10.3464202,-0.0590935065 10.1100504,0.17728052 L5.57142857,4.71598452 L1.03280672,0.17728052 C0.796436975,-0.0590935065 0.413647059,-0.0590935065 0.177277311,0.17728052 C-0.059092437,0.413251177 -0.059092437,0.796854759 0.177277311,1.03282542 L4.71589916,5.57152941 L0.177277311,10.1102334 C-0.059092437,10.3462041 -0.059092437,10.7298077 0.177277311,10.9657783 C0.295462185,11.0839653 0.450352941,11.1428571 0.605243697,11.1428571 C0.760134454,11.1428571 0.914621849,11.0839653 1.03280672,10.9657783 L5.57142857,6.42707431 L10.1100504,10.9657783 C10.2282353,11.0839653 10.3831261,11.1428571 10.5380168,11.1428571 C10.6929076,11.1428571 10.847395,11.0839653 10.9655798,10.9657783 C11.2019496,10.7298077 11.2019496,10.3462041 10.9655798,10.1102334 L6.42695798,5.57152941"></path>
      </g>
    </g>
  </g>
</svg>
